<?xml version="1.0" encoding="utf-8"?>
<!-- Generator: Adobe Illustrator 26.0.1, SVG Export Plug-In . SVG Version: 6.00 Build 0)  -->
<svg version="1.1" id="Layer_1" xmlns="http://www.w3.org/2000/svg" xmlns:xlink="http://www.w3.org/1999/xlink" x="0px" y="0px"
	 viewBox="0 0 2051.3 300" style="enable-background:new 0 0 2051.3 300;" xml:space="preserve">
<style type="text/css">
	.st0{fill:#98C24F;}
	.st1{fill:#007E4C;}
	.st2{fill:#EFC352;}
	.st3{opacity:0.9608;fill:#59595B;enable-background:new    ;}
	.st4{opacity:0.9608;enable-background:new    ;}
	.st5{fill:#59595B;}
</style>
<g>
	<rect x="1" y="140.1" class="st0" width="193.7" height="95"/>
	<rect x="212" y="140.1" class="st0" width="200" height="95"/>
	<rect x="212" y="73.5" class="st1" width="200" height="47.5"/>
	<rect x="110.4" y="73.5" class="st1" width="84.3" height="47.5"/>
	<rect x="0" y="252.5" class="st1" width="194.7" height="47.5"/>
	<rect x="212" y="252.5" class="st1" width="86" height="47.5"/>
	<path class="st2" d="M206.2,57.2l49.9-48.4c3.3-3.2,1-8.8-3.6-8.8h-99.7c-4.6,0-6.9,5.6-3.6,8.8l49.9,48.4
		C201.1,59.1,204.2,59.1,206.2,57.2z"/>
	<rect x="1869.2" y="96" class="st3" width="18.4" height="142.7"/>
	<path class="st3" d="M762.1,184.7c0,32.3-25.8,53.2-50.5,53.2c-17.4,0-24.5-2.2-38.5-15.8v49h-16.8V133.2h16.6v14.5
		c10.7-13.7,20.2-18,38.7-18C736.4,129.6,762.1,152.4,762.1,184.7z M744.6,184.7c0-25.4-16.4-38.4-33-38.4c-18,0-39.1,8.4-39.1,38.4
		c0,27.4,21.1,38.6,39.1,38.6C728.2,223.3,744.6,210.1,744.6,184.7z"/>
	<g class="st4">
		<path class="st5" d="M502.7,167.1c0-43,29.2-75.3,72.2-75.3s72.4,32.3,72.4,75.3s-29.5,75.3-72.4,75.3
			C531.9,242.4,502.7,210.1,502.7,167.1z M628.6,167.1c0-34-21.2-59.1-53.7-59.1c-32.7,0-53.5,25.1-53.5,59.1
			c0,33.8,20.7,59.1,53.5,59.1C607.4,226.2,628.6,200.9,628.6,167.1z"/>
	</g>
	<g class="st4">
		<path class="st5" d="M1906.2,167.1c0-43,29.2-75.3,72.2-75.3s72.4,32.3,72.4,75.3s-29.5,75.3-72.4,75.3
			C1935.4,242.4,1906.2,210.1,1906.2,167.1z M2032.1,167.1c0-34-21.2-59.1-53.7-59.1c-32.7,0-53.5,25.1-53.5,59.1
			c0,33.8,20.7,59.1,53.5,59.1C2010.9,226.2,2032.1,200.9,2032.1,167.1z"/>
	</g>
	<path class="st3" d="M823.9,226.2c11.2,0,21.4-3.1,30-15.6l14.1,8.9c-9.5,14.3-24.9,22.5-43.7,22.5c-32.8,0-53.7-22.1-53.7-55.6
		c0-34.2,21.1-56.3,50.8-56.3c30,0,50.6,22.5,50.6,57.1v4.6h-82.8C790.7,212.4,802.1,226.2,823.9,226.2z M789.6,176.9h63.2
		c-3-19.6-15.2-31.3-31.6-31.3C805,145.6,792.6,156.8,789.6,176.9z"/>
	<path class="st3" d="M972,164.5v74.3h-18.4v-70.3c0-16.3-9.2-25.1-23.8-25.1c-19.8,0-32.4,15.8-32.4,30.9v64.5H879V130.1h18.2v14
		c3.4-5.5,14.6-16.7,37-16.7C956.4,127.4,972,141.2,972,164.5z"/>
	<path class="st3" d="M1356.4,161.7v76.7h-40.3v-65c0-9.6-6.3-13.9-13.4-13.9c-7.3,0-14.1,6-14.1,17.4v61.5h-41.3v-65
		c0-9.2-5.5-13.9-12.3-13.9c-7.3,0-15.2,6-15.2,17.4v61.5h-40.3V127.9h40.3v12.6c4.4-6.6,17.4-15.6,34.7-15.6
		c11.6,0,22.3,4.6,28.6,16.2c5.7-8.1,19.9-16.2,36.1-16.2C1336.1,124.9,1356.4,134.9,1356.4,161.7z"/>
	<path class="st3" d="M1108,132.8h-41.8v105.9h-41.6V132.8h-41.8V96.2H1108V132.8z"/>
	<g class="st4">
		<rect x="1119.8" y="90.9" class="st5" width="41.5" height="28.7"/>
		<rect x="1120.7" y="127.8" class="st5" width="39.6" height="110.9"/>
	</g>
	<g class="st4">
		<rect x="1554.8" y="90.9" class="st5" width="41.5" height="28.7"/>
		<rect x="1555.7" y="127.8" class="st5" width="39.6" height="110.9"/>
	</g>
	<path class="st3" d="M1430.6,210.1c8.7,0,15.6-3.1,21.8-9.7l26.2,20.9c-11.5,13.1-29.2,20.3-50,20.3c-35.5,0-59.2-22.5-59.2-56.3
		c0-35.8,22.8-59.7,56.9-59.7c33.7,0,56.1,25.8,56.1,61.4v8.5h-70.6C1413.7,204.3,1419.2,210.1,1430.6,210.1z M1411.3,172.9h29.6
		c-2.1-10.3-7.3-15.5-14.8-15.5S1413.3,162.6,1411.3,172.9z"/>
	<path class="st3" d="M1799.1,209.1c8.7,0,15.6-3.1,21.8-9.7l26.2,20.9c-11.5,13.1-29.2,20.3-50,20.3c-35.5,0-59.2-22.5-59.2-56.3
		c0-35.8,22.8-59.7,56.9-59.7c33.7,0,56.1,25.8,56.1,61.4v8.5h-70.6C1782.2,203.4,1787.7,209.1,1799.1,209.1z M1779.8,171.9h29.6
		c-2.1-10.3-7.3-15.5-14.8-15.5S1781.8,161.7,1779.8,171.9z"/>
	<path class="st3" d="M1495.7,90.9h39.6v147.8h-39.6V90.9z"/>
	<path class="st3" d="M1724,164.5v74.2h-41.5v-64.3c0-11.4-5-15-12-15c-8.8,0-13,7.8-13,17.5v61.8H1616v-111h40.5v11.9
		c4.4-7.9,14.2-14.8,30.7-14.8C1705.4,124.8,1724,136,1724,164.5z"/>
</g>
</svg>
